<svg xmlns="http://www.w3.org/2000/svg" xmlns:xlink="http://www.w3.org/1999/xlink" width="70" height="70" viewBox="0 0 70 70">
  <defs>
    <style>
      .cls-1 {
        clip-path: url(#clip-Artboard_64);
      }

      .cls-2, .cls-3, .cls-4 {
        fill: none;
        stroke: #3a4150;
        stroke-width: 2px;
      }

      .cls-2 {
        stroke-miterlimit: 10;
      }

      .cls-3, .cls-4 {
        stroke-linejoin: round;
      }

      .cls-4 {
        stroke-linecap: round;
      }
    </style>
    <clipPath id="clip-Artboard_64">
      <rect width="70" height="70"/>
    </clipPath>
  </defs>
  <g id="Artboard_64" data-name="Artboard – 64" class="cls-1">
    <g id="Group_260" data-name="Group 260" transform="translate(-4 -87)">
      <line id="Line_26" data-name="Line 26" class="cls-2" x1="1" y1="8.47" transform="translate(35 109.5)"/>
      <path id="Path_128" data-name="Path 128" class="cls-3" d="M25,110.74c-3.73,1.6-6,6.76-6,6.76l36,1"/>
      <circle id="Ellipse_123" data-name="Ellipse 123" class="cls-2" cx="5" cy="5" r="5" transform="translate(15 124.5)"/>
      <circle id="Ellipse_124" data-name="Ellipse 124" class="cls-2" cx="5" cy="5" r="5" transform="translate(53 124.5)"/>
      <line id="Line_27" data-name="Line 27" class="cls-2" x2="28.84" transform="translate(24.58 131.5)"/>
      <path id="Path_129" data-name="Path 129" class="cls-2" d="M62.58,131.5H67a3,3,0,0,0,3-3v-3.72a4,4,0,0,0-3.22-3.92L55,118.5c-7.23-6.45-9.29-9-18-9H32c-7.9,0-17,5.98-17,5.98l-5.62,1.85A2.009,2.009,0,0,0,8,119.23v7.67a3,3,0,0,0,2.58,2.97l4.53.64"/>
      <line id="Line_28" data-name="Line 28" class="cls-4" x2="3" transform="translate(8 120.5)"/>
      <line id="Line_29" data-name="Line 29" class="cls-4" x2="3" transform="translate(67 124.5)"/>
    </g>
  </g>
</svg>
